<svg width="259" height="40" viewBox="0 0 259 40" fill="none" xmlns="http://www.w3.org/2000/svg">
<g filter="url(#filter0_d)">
<mask id="mask0" mask-type="alpha" maskUnits="userSpaceOnUse" x="139" y="6" width="30" height="29">
<path fill-rule="evenodd" clip-rule="evenodd" d="M139.85 6.63531H168.792V34.2352H139.85V6.63531Z" fill="white"/>
</mask>
<g mask="url(#mask0)">
<path fill-rule="evenodd" clip-rule="evenodd" d="M168.792 6.63531V6.63531C168.792 9.90048 166.107 12.5473 162.793 12.5473H158.41C157.809 12.5473 157.322 13.027 157.322 13.6188V28.3233C157.322 31.5882 154.637 34.2353 151.323 34.2353V13.6188C151.323 13.027 150.837 12.5473 150.236 12.5473H145.849C142.536 12.5473 139.85 9.90048 139.85 6.63531H168.792Z" fill="#FEFEFE"/>
</g>
<mask id="mask1" mask-type="alpha" maskUnits="userSpaceOnUse" x="3" y="6" width="28" height="29">
<path fill-rule="evenodd" clip-rule="evenodd" d="M3 6.98212H30.4514V34.2352H3V6.98212Z" fill="white"/>
</mask>
<g mask="url(#mask1)">
<path fill-rule="evenodd" clip-rule="evenodd" d="M21.0247 34.2353H2.99994C2.99994 30.9701 5.68567 28.3234 8.99889 28.3234H21.0247C22.2044 28.3234 23.1606 27.381 23.1606 26.2184C23.1606 25.0561 22.2044 24.1138 21.0247 24.1138H13.4054C8.60506 24.1138 4.71354 20.2787 4.71354 15.5476C4.71354 10.8169 8.60506 6.98212 13.4054 6.98212H30.4514C30.4514 10.247 27.7657 12.8941 24.4525 12.8941H13.4054C11.918 12.8941 10.7125 14.0821 10.7125 15.5476C10.7125 17.0135 11.918 18.2018 13.4054 18.2018H21.0247C25.5176 18.2018 29.1596 21.791 29.1596 26.2184C29.1596 30.6459 25.5176 34.2353 21.0247 34.2353" fill="#FEFEFE"/>
</g>
<path fill-rule="evenodd" clip-rule="evenodd" d="M43.2516 23.5646H34.2277V21.3305C34.2277 19.2991 35.8987 17.6526 37.9596 17.6526H49.2505C49.2505 20.9175 46.5648 23.5646 43.2516 23.5646" fill="#FEFEFE"/>
<path fill-rule="evenodd" clip-rule="evenodd" d="M44.832 12.8939H34.2277V6.98199H50.831C50.831 10.2469 48.1452 12.8939 44.832 12.8939" fill="#FEFEFE"/>
<mask id="mask2" mask-type="alpha" maskUnits="userSpaceOnUse" x="34" y="28" width="17" height="7">
<path fill-rule="evenodd" clip-rule="evenodd" d="M34.2277 28.3234H50.831V34.2352H34.2277V28.3234Z" fill="white"/>
</mask>
<g mask="url(#mask2)">
<path fill-rule="evenodd" clip-rule="evenodd" d="M50.831 34.2353H34.2277V28.3234H44.8321C48.1453 28.3234 50.831 30.9701 50.831 34.2353" fill="#FEFEFE"/>
</g>
<path fill-rule="evenodd" clip-rule="evenodd" d="M77.3466 34.235H67.4687C59.832 34.235 53.6417 28.1342 53.6417 20.6086V20.6083C53.6417 13.0827 59.832 6.98212 67.4687 6.98212H77.3466C77.3466 10.2473 74.6606 12.8941 71.3476 12.8941H67.4687C63.1453 12.8941 59.6407 16.3478 59.6407 20.6083C59.6407 24.869 63.1453 28.3231 67.4687 28.3231H71.3476C74.6606 28.3231 77.3466 30.9699 77.3466 34.235" fill="#FEFEFE"/>
<path fill-rule="evenodd" clip-rule="evenodd" d="M91.6649 34.235V34.235C85.952 34.235 81.3206 29.671 81.3206 24.0408V6.98212C84.6338 6.98212 87.3195 9.6289 87.3195 12.8941V23.3216C87.3195 25.6866 89.265 27.6039 91.6649 27.6039C94.065 27.6039 96.0102 25.6866 96.0102 23.3216V12.8941C96.0102 9.6289 98.6962 6.98212 102.009 6.98212V24.0408C102.009 29.671 97.378 34.235 91.6649 34.235" fill="#FEFEFE"/>
<path fill-rule="evenodd" clip-rule="evenodd" d="M129.893 34.235V34.235V12.8941C129.893 9.6289 132.579 6.98212 135.892 6.98212V28.3231C135.892 31.5882 133.206 34.235 129.893 34.235" fill="#FEFEFE"/>
<path fill-rule="evenodd" clip-rule="evenodd" d="M115.982 30.7141L108.094 18.7288C107.479 17.7956 108.159 16.5624 109.288 16.5624H116.903C117.931 16.5624 118.764 15.7412 118.764 14.7282C118.764 13.7149 117.931 12.894 116.903 12.894C114.299 12.894 112.189 10.8139 112.189 8.2481V6.98206H117.709C121.605 6.98206 124.763 10.0941 124.763 13.933V15.523C124.763 19.3623 121.605 22.4743 117.709 22.4743L124.28 32.4566C121.5 34.2335 117.785 33.4534 115.982 30.7141" fill="#FEFEFE"/>
<mask id="mask3" mask-type="alpha" maskUnits="userSpaceOnUse" x="172" y="6" width="18" height="29">
<path fill-rule="evenodd" clip-rule="evenodd" d="M172.581 6.63452H189.822V34.2352H172.581V6.63452Z" fill="white"/>
</mask>
<g mask="url(#mask3)">
<path fill-rule="evenodd" clip-rule="evenodd" d="M189.822 20.4398V26.9131C189.822 30.9572 186.495 34.2353 182.392 34.2353V20.5696L172.581 7.83818C175.217 5.86359 178.981 6.37202 180.985 8.97032L189.822 20.4398Z" fill="#FEFEFE"/>
</g>
<path fill-rule="evenodd" clip-rule="evenodd" d="M191.411 18.2017L197.304 7.374C194.404 5.79462 190.754 6.83069 189.151 9.68824L187.368 13.1899L191.411 18.2017Z" fill="#FEFEFE"/>
<mask id="mask4" mask-type="alpha" maskUnits="userSpaceOnUse" x="212" y="3" width="7" height="32">
<path fill-rule="evenodd" clip-rule="evenodd" d="M212.511 3.29602H218.51V34.2352H212.511V3.29602Z" fill="white"/>
</mask>
<g mask="url(#mask4)">
<path fill-rule="evenodd" clip-rule="evenodd" d="M212.511 34.2353V34.2353V9.20797C212.511 5.9428 215.197 3.29602 218.51 3.29602V28.3234C218.51 31.5882 215.824 34.2353 212.511 34.2353" fill="#FEFEFE"/>
</g>
<mask id="mask5" mask-type="alpha" maskUnits="userSpaceOnUse" x="223" y="27" width="7" height="8">
<path fill-rule="evenodd" clip-rule="evenodd" d="M223.653 27.94H229.652V34.2352H223.653V27.94Z" fill="white"/>
</mask>
<g mask="url(#mask5)">
<path fill-rule="evenodd" clip-rule="evenodd" d="M226.652 34.2353V34.2353C224.996 34.2353 223.653 32.9117 223.653 31.2794V30.896C223.653 29.2634 224.996 27.94 226.652 27.94C228.309 27.94 229.652 29.2634 229.652 30.896V31.2794C229.652 32.9117 228.309 34.2353 226.652 34.2353" fill="#FEFEFE"/>
</g>
<mask id="mask6" mask-type="alpha" maskUnits="userSpaceOnUse" x="234" y="3" width="20" height="32">
<path fill-rule="evenodd" clip-rule="evenodd" d="M234.103 3.29559H253.888V34.2352H234.103V3.29559Z" fill="white"/>
</mask>
<g mask="url(#mask6)">
<path fill-rule="evenodd" clip-rule="evenodd" d="M243.996 28.2864V28.2864C246.146 28.2864 247.889 26.5684 247.889 24.449V13.0815C247.889 10.9626 246.146 9.24431 243.996 9.24431C241.845 9.24431 240.102 10.9626 240.102 13.0815V24.449C240.102 26.5684 241.845 28.2864 243.996 28.2864M243.996 34.2353V34.2353C238.532 34.2353 234.103 29.8702 234.103 24.4859V13.0448C234.103 7.6605 238.532 3.29541 243.996 3.29541C249.459 3.29541 253.888 7.6605 253.888 13.0448V24.4859C253.888 29.8702 249.459 34.2353 243.996 34.2353" fill="#FEFEFE"/>
</g>
</g>
<defs>
<filter id="filter0_d" x="0" y="0.295593" width="258.888" height="38.9396" filterUnits="userSpaceOnUse" color-interpolation-filters="sRGB">
<feFlood flood-opacity="0" result="BackgroundImageFix"/>
<feColorMatrix in="SourceAlpha" type="matrix" values="0 0 0 0 0 0 0 0 0 0 0 0 0 0 0 0 0 0 127 0"/>
<feOffset dx="1" dy="1"/>
<feGaussianBlur stdDeviation="2"/>
<feColorMatrix type="matrix" values="0 0 0 0 0 0 0 0 0 0 0 0 0 0 0 0 0 0 0.5 0"/>
<feBlend mode="normal" in2="BackgroundImageFix" result="effect1_dropShadow"/>
<feBlend mode="normal" in="SourceGraphic" in2="effect1_dropShadow" result="shape"/>
</filter>
</defs>
</svg>
