<?xml version="1.0" encoding="UTF-8"?>
<svg width="23px" height="23px" viewBox="0 0 23 23" version="1.1" xmlns="http://www.w3.org/2000/svg" xmlns:xlink="http://www.w3.org/1999/xlink">
    <!-- Generator: Sketch 52.5 (67469) - http://www.bohemiancoding.com/sketch -->
    <title>Button/Link/instagram</title>
    <desc>Created with Sketch.</desc>
    <g id="Button/Link/instagram" stroke="none" stroke-width="1" fill="none" fill-rule="evenodd">
        <g id="small_Instagram_normal" fill="#FFFFFF">
            <g id="Icon">
                <path d="M7.6675867,11.5 C7.6675867,9.382988 9.38336333,7.66636 11.50046,7.66636 C13.6175567,7.66636 15.3342534,9.382988 15.3342534,11.5 C15.3342534,13.617012 13.6175567,15.33364 11.50046,15.33364 C9.38336333,15.33364 7.6675867,13.617012 7.6675867,11.5 M5.5951118,11.5 C5.5951118,14.7614 8.23892956,17.405112 11.50046,17.405112 C14.7619905,17.405112 17.4058082,14.7614 17.4058082,11.5 C17.4058082,8.2386 14.7619905,5.594888 11.50046,5.594888 C8.23892956,5.594888 5.5951118,8.2386 5.5951118,11.5 M16.2595344,5.360748 C16.2592296,6.12290087 16.8768541,6.74099494 17.6390375,6.74129978 C18.4012208,6.74160462 19.0193397,6.12400479 19.0196446,5.36185193 C19.0199495,4.59969906 18.402325,3.98160492 17.6401416,3.9813 L17.6395896,3.9813 C16.8777688,3.98165505 16.2601942,4.59895786 16.2595344,5.360748 M6.85427417,20.860724 C5.73302532,20.809664 5.12359294,20.622904 4.71859274,20.465124 C4.18165927,20.2561 3.79855594,20.007148 3.39576383,19.604924 C2.99297172,19.2027 2.74364175,18.81998 2.53552942,18.283068 C2.37765111,17.878268 2.19088364,17.268676 2.1399136,16.147472 C2.08415937,14.93528 2.07302692,14.571144 2.07302692,11.500092 C2.07302692,8.42904 2.0850794,8.065916 2.1399136,6.852712 C2.19097564,5.731508 2.37912316,5.123112 2.53552942,4.717116 C2.74456178,4.180204 2.99352374,3.797116 3.39576383,3.39434 C3.79800392,2.991564 4.18073923,2.742244 4.71859274,2.53414 C5.12340894,2.376268 5.73302532,2.189508 6.85427417,2.13854 C8.06651466,2.082788 8.43066523,2.071656 11.50046,2.071656 C14.5702548,2.071656 14.9347734,2.083708 16.1480259,2.13854 C17.2692748,2.1896 17.8776951,2.37774 18.2837073,2.53414 C18.8206408,2.742244 19.2037441,2.992116 19.6065363,3.39434 C20.0093284,3.796564 20.2577383,4.180204 20.4667707,4.717116 C20.624649,5.121916 20.8114165,5.731508 20.8623865,6.852712 C20.9181407,8.065916 20.9292732,8.42904 20.9292732,11.500092 C20.9292732,14.571144 20.9181407,14.934268 20.8623865,16.147472 C20.8113245,17.268676 20.6236369,17.878084 20.4667707,18.283068 C20.2577383,18.81998 20.0087764,19.203068 19.6065363,19.604924 C19.2042962,20.00678 18.8206408,20.2561 18.2837073,20.465124 C17.8788912,20.622996 17.2692748,20.809756 16.1480259,20.860724 C14.9357854,20.916476 14.5716349,20.927608 11.50046,20.927608 C8.42928517,20.927608 8.06614665,20.916476 6.85427417,20.860724 M6.75905036,0.069644 C5.53475739,0.125396 4.69816793,0.319516 3.9675667,0.603796 C3.21092844,0.897368 2.57039882,1.29122 1.93032921,1.930252 C1.29025961,2.569284 0.897403896,3.2108 0.603820153,3.967408 C0.319528781,4.69844 0.125401016,5.534536 0.0696467859,6.75878 C0.0129725189,7.984956 0,8.376968 0,11.5 C0,14.623032 0.0129725189,15.015044 0.0696467859,16.24122 C0.125401016,17.465556 0.319528781,18.30156 0.603820153,19.032592 C0.897403896,19.78874 1.29035161,20.430992 1.93032921,21.069748 C2.57030681,21.708504 3.21092844,22.101804 3.9675667,22.396204 C4.69954798,22.680484 5.53475739,22.874604 6.75905036,22.930356 C7.98591944,22.986108 8.37730309,23 11.50046,23 C14.6236169,23 15.0156446,22.987028 16.2418697,22.930356 C17.4662547,22.874604 18.3022921,22.680484 19.0333533,22.396204 C19.7895316,22.101804 20.4305212,21.70878 21.0705908,21.069748 C21.7106604,20.430716 22.1026881,19.78874 22.3970999,19.032592 C22.6813913,18.30156 22.8764391,17.465464 22.9312733,16.24122 C22.9870275,15.014124 23,14.623032 23,11.5 C23,8.376968 22.9870275,7.984956 22.9312733,6.75878 C22.875519,5.534444 22.6813913,4.69798 22.3970999,3.967408 C22.1026881,3.21126 21.7096484,2.570296 21.0705908,1.930252 C20.4315333,1.290208 19.7895316,0.897368 19.0342734,0.603796 C18.3022921,0.319516 17.4661626,0.124476 16.2427897,0.069644 C15.0165647,0.013892 14.624537,0 11.5013801,0 C8.37822313,0 7.98591944,0.012972 6.75905036,0.069644" id="Shape"></path>
            </g>
        </g>
    </g>
</svg>